<?xml version="1.0" encoding="UTF-8" standalone="no"?>
<!-- Created with Inkscape (http://www.inkscape.org/) -->

<svg
   version="1.1"
   id="svg1606"
   width="176.14914"
   height="176.14914"
   viewBox="0 0 176.14914 176.14914"
   sodipodi:docname="ted.svg"
   inkscape:version="1.2.1 (9c6d41e410, 2022-07-14)"
   inkscape:export-filename="ted face.png"
   inkscape:export-xdpi="96"
   inkscape:export-ydpi="96"
   xmlns:inkscape="http://www.inkscape.org/namespaces/inkscape"
   xmlns:sodipodi="http://sodipodi.sourceforge.net/DTD/sodipodi-0.dtd"
   xmlns="http://www.w3.org/2000/svg"
   xmlns:svg="http://www.w3.org/2000/svg">
  <defs
     id="defs1610">
    <clipPath
       clipPathUnits="userSpaceOnUse"
       id="clipPath7010">
      <path
         id="path7012"
         style="fill:#c80000;fill-opacity:0.293937;stroke-width:1.08042;stroke-linecap:round;stroke-linejoin:round;stroke-miterlimit:4;stroke-dasharray:none"
         d="m 293.28125,665.08008 a 48.419346,48.719612 0 0 0 -37.15234,17.56836 48.419346,48.719612 0 0 0 -37.1211,-17.45508 48.419346,48.719612 0 0 0 -48.41992,48.7207 48.419346,48.719612 0 0 0 48.41992,48.71875 48.419346,48.719612 0 0 0 37.17774,-17.60156 48.419346,48.719612 0 0 0 37.0957,17.48828 48.419346,48.719612 0 0 0 37.2207,-17.66015 48.419346,48.719612 0 0 0 37.32617,17.80078 48.419346,48.719612 0 0 0 37.06836,-17.45313 48.419346,48.719612 0 0 0 37.12696,17.53125 48.419346,48.719612 0 0 0 37.54297,-18.0918 48.419346,48.719612 0 0 0 37.48242,18.00977 48.419346,48.719612 0 0 0 48.41797,-48.7207 48.419346,48.719612 0 0 0 -48.41797,-48.71875 48.419346,48.719612 0 0 0 -37.4961,18.02539 48.419346,48.719612 0 0 0 -37.52929,-17.94336 48.419346,48.719612 0 0 0 -37.03906,17.41406 48.419346,48.719612 0 0 0 -37.15626,-17.49219 48.419346,48.719612 0 0 0 -37.17773,17.60352 48.419346,48.719612 0 0 0 -37.36914,-17.74414 z" />
    </clipPath>
  </defs>
  <sodipodi:namedview
     id="namedview1608"
     pagecolor="#ffffff"
     bordercolor="#cccccc"
     borderopacity="1"
     inkscape:pageshadow="0"
     inkscape:pageopacity="0"
     inkscape:pagecheckerboard="0"
     showgrid="false"
     inkscape:zoom="1.9891107"
     inkscape:cx="-72.896896"
     inkscape:cy="1.0054744"
     inkscape:window-width="1920"
     inkscape:window-height="1017"
     inkscape:window-x="1912"
     inkscape:window-y="-8"
     inkscape:window-maximized="1"
     inkscape:current-layer="g1612"
     inkscape:showpageshadow="0"
     inkscape:deskcolor="#d1d1d1" />
  <g
     inkscape:groupmode="layer"
     inkscape:label="Image"
     id="g1612"
     transform="translate(-820.97182,-902.78212)">
    <circle
       id="path10-3"
       cx="909.04639"
       cy="990.85669"
       r="83.057617"
       style="fill:#cc7700;fill-opacity:1;stroke:#000000;stroke-width:10.0339;stroke-miterlimit:4;stroke-dasharray:none;stroke-opacity:1" />
    <path
       style="fill:#000000;fill-opacity:1;stroke:#000000;stroke-width:0.598379px;stroke-linecap:butt;stroke-linejoin:miter;stroke-opacity:1"
       d="m 824.50826,982.70804 c 40.20221,20.98186 155.91675,12.8877 170.60841,-4.16889 -5.32116,-17.88716 -14.06701,-34.1937 -25.54821,-49.23777 -19.62448,-14.34235 -28.23148,-17.66987 -42.58088,-22.70628 l -55.1755,7.42791 -32.9071,30.74511 z"
       id="path4532-7"
       inkscape:connector-curvature="0"
       sodipodi:nodetypes="ccccccc" />
    <ellipse
       style="fill:#000000;fill-opacity:1;stroke-width:1.1;stroke-linecap:round;stroke-linejoin:round;stroke-miterlimit:4;stroke-dasharray:none"
       id="path72656"
       cx="876.4314"
       cy="1013.0149"
       rx="5.6880002"
       ry="5.6875525" />
    <ellipse
       style="fill:#000000;fill-opacity:1;stroke-width:2.70579;stroke-linecap:round;stroke-linejoin:round;stroke-miterlimit:4;stroke-dasharray:none"
       id="path72656-5"
       cx="911.85785"
       cy="1038.8087"
       rx="14.190593"
       ry="13.793914" />
    <circle
       style="fill:#000000;fill-opacity:1;stroke-width:1.1;stroke-linecap:round;stroke-linejoin:round;stroke-miterlimit:4;stroke-dasharray:none"
       id="path72656-8"
       cx="948.90289"
       cy="1010.0012"
       r="5.6875525" />
    <path
       style="fill:#ff6600;fill-opacity:1;stroke:#ff6600;stroke-width:4.55026;stroke-linecap:round;stroke-linejoin:round;stroke-miterlimit:4;stroke-dasharray:none;stroke-opacity:1"
       d=""
       id="path80710" />
  </g>
</svg>
